<svg width="216" height="32" viewBox="0 0 216 32" fill="none" xmlns="http://www.w3.org/2000/svg">
<path d="M10.9689 5.8981C10.7638 5.43778 10.5864 4.72834 11.5121 4.30052C12.3214 3.92143 13.4633 3.79688 14.6606 3.79688C16.1794 3.81312 17.7314 4.17055 19.2281 4.84207C20.7247 5.51359 22.1382 6.48839 23.3854 7.70688C24.6326 8.92537 25.6913 10.3713 26.5006 11.9581C27.3099 13.5448 27.8531 15.2399 28.097 16.9458C28.3409 18.6516 28.2855 20.3413 27.9307 21.9118C27.576 23.4823 26.8942 24.8362 26.0295 26.1034C25.5527 26.737 25.004 27.3057 24.3998 27.7876C23.5129 28.4971 22.4098 28.3671 21.8444 27.2352L16.5286 16.805L10.9689 5.8981Z" fill="url(#paint0_linear_1095_2072)"/>
<path d="M17.3936 22.6808C17.6597 23.2062 17.7096 23.6177 16.8615 24.0293C15.8803 24.5005 14.7274 24.56 13.5855 24.5492C12.0667 24.533 10.5146 24.1755 9.018 23.504C7.52136 22.8325 6.10787 21.8577 4.86068 20.6392C3.61348 19.4207 2.55475 17.9748 1.74546 16.388C0.936167 14.8013 0.392944 13.1062 0.149048 11.4003C-0.0948485 9.69442 -0.0394175 8.00478 0.31534 6.43428C0.670098 4.86378 1.3131 3.4395 2.21662 2.24267C2.74322 1.54407 3.34741 0.932112 4.02367 0.417638C4.82742 -0.194316 5.75866 -0.215978 6.29634 0.91045L11.7119 11.5411L17.3881 22.6863L17.3936 22.6808Z" fill="url(#paint1_linear_1095_2072)"/>
<g clip-path="url(#clip0_1095_2072)">
<g clip-path="url(#paint2_diamond_1095_2072_clip_path)" data-figma-skip-parse="true"><g transform="matrix(0.0122825 0 0 0.0111748 52.2825 12.2207)"><rect x="0" y="0" width="1081.42" height="1089.49" fill="url(#paint2_diamond_1095_2072)" opacity="1" shape-rendering="crispEdges"/><rect x="0" y="0" width="1081.42" height="1089.49" transform="scale(1 -1)" fill="url(#paint2_diamond_1095_2072)" opacity="1" shape-rendering="crispEdges"/><rect x="0" y="0" width="1081.42" height="1089.49" transform="scale(-1 1)" fill="url(#paint2_diamond_1095_2072)" opacity="1" shape-rendering="crispEdges"/><rect x="0" y="0" width="1081.42" height="1089.49" transform="scale(-1)" fill="url(#paint2_diamond_1095_2072)" opacity="1" shape-rendering="crispEdges"/></g></g><path d="M44.9037 1.0459C45.4681 1.0459 45.9862 1.38219 46.1991 1.90025L52.1575 16.2062H52.4074L58.3659 1.90025C58.5787 1.38219 59.0875 1.0459 59.6612 1.0459H63.1678C63.9357 1.0459 64.5649 1.66394 64.5649 2.41832V22.5866C64.5649 23.0319 64.1948 23.3955 63.7414 23.3955H60.8085C60.3551 23.3955 59.985 23.0319 59.985 22.5866V8.76238H59.8L54.0728 22.7956C53.9432 23.1047 53.6472 23.3046 53.3048 23.3046H51.2786C50.9362 23.3046 50.6402 23.1047 50.5106 22.7956L44.7834 8.70784H44.5984V22.5866C44.5984 23.0319 44.2283 23.3955 43.7749 23.3955H40.8235C40.3701 23.3955 40 23.0319 40 22.5866V2.41832C40 1.66394 40.6292 1.0459 41.3971 1.0459H44.9037Z" data-figma-gradient-fill="{&#34;type&#34;:&#34;GRADIENT_DIAMOND&#34;,&#34;stops&#34;:[{&#34;color&#34;:{&#34;r&#34;:0.30588236451148987,&#34;g&#34;:0.16941176354885101,&#34;b&#34;:0.094117648899555206,&#34;a&#34;:1.0},&#34;position&#34;:0.0},{&#34;color&#34;:{&#34;r&#34;:0.23137255012989044,&#34;g&#34;:0.12941177189350128,&#34;b&#34;:0.070588238537311554,&#34;a&#34;:1.0},&#34;position&#34;:1.0}],&#34;stopsVar&#34;:[{&#34;color&#34;:{&#34;r&#34;:0.30588236451148987,&#34;g&#34;:0.16941176354885101,&#34;b&#34;:0.094117648899555206,&#34;a&#34;:1.0},&#34;position&#34;:0.0},{&#34;color&#34;:{&#34;r&#34;:0.23137255012989044,&#34;g&#34;:0.12941177189350128,&#34;b&#34;:0.070588238537311554,&#34;a&#34;:1.0},&#34;position&#34;:1.0}],&#34;transform&#34;:{&#34;m00&#34;:24.564903259277344,&#34;m01&#34;:0.0,&#34;m02&#34;:40.0,&#34;m10&#34;:0.0,&#34;m11&#34;:22.349605560302734,&#34;m12&#34;:1.04589843750},&#34;opacity&#34;:1.0,&#34;blendMode&#34;:&#34;NORMAL&#34;,&#34;visible&#34;:true}"/>
<g clip-path="url(#paint3_diamond_1095_2072_clip_path)" data-figma-skip-parse="true"><g transform="matrix(0.00805577 0 0 0.0115338 74.0089 19.6871)"><rect x="0" y="0" width="1124.13" height="1086.7" fill="url(#paint3_diamond_1095_2072)" opacity="1" shape-rendering="crispEdges"/><rect x="0" y="0" width="1124.13" height="1086.7" transform="scale(1 -1)" fill="url(#paint3_diamond_1095_2072)" opacity="1" shape-rendering="crispEdges"/><rect x="0" y="0" width="1124.13" height="1086.7" transform="scale(-1 1)" fill="url(#paint3_diamond_1095_2072)" opacity="1" shape-rendering="crispEdges"/><rect x="0" y="0" width="1124.13" height="1086.7" transform="scale(-1)" fill="url(#paint3_diamond_1095_2072)" opacity="1" shape-rendering="crispEdges"/></g></g><path d="M67.1467 31.121V27.5672C67.7481 27.5945 68.4327 27.6308 69.0341 27.6308C69.9409 27.6308 70.6996 27.5399 71.2639 26.0857L71.5508 25.3768L66.0271 9.86203C65.7311 9.02585 66.3602 8.15332 67.2577 8.15332H69.3025C69.8854 8.15332 70.4035 8.53505 70.5608 9.08948L73.8731 20.5051H74.0581L77.3982 9.08948C77.5555 8.53505 78.0737 8.16241 78.6565 8.16241H80.7568C81.6543 8.16241 82.2927 9.03494 81.9874 9.87112L75.9364 26.7765C74.9649 29.4668 73.1052 31.2209 69.4968 31.2209C68.59 31.2209 67.7388 31.1937 67.1374 31.1301L67.1467 31.121Z" data-figma-gradient-fill="{&#34;type&#34;:&#34;GRADIENT_DIAMOND&#34;,&#34;stops&#34;:[{&#34;color&#34;:{&#34;r&#34;:0.30588236451148987,&#34;g&#34;:0.16941176354885101,&#34;b&#34;:0.094117648899555206,&#34;a&#34;:1.0},&#34;position&#34;:0.0},{&#34;color&#34;:{&#34;r&#34;:0.23137255012989044,&#34;g&#34;:0.12941177189350128,&#34;b&#34;:0.070588238537311554,&#34;a&#34;:1.0},&#34;position&#34;:1.0}],&#34;stopsVar&#34;:[{&#34;color&#34;:{&#34;r&#34;:0.30588236451148987,&#34;g&#34;:0.16941176354885101,&#34;b&#34;:0.094117648899555206,&#34;a&#34;:1.0},&#34;position&#34;:0.0},{&#34;color&#34;:{&#34;r&#34;:0.23137255012989044,&#34;g&#34;:0.12941177189350128,&#34;b&#34;:0.070588238537311554,&#34;a&#34;:1.0},&#34;position&#34;:1.0}],&#34;transform&#34;:{&#34;m00&#34;:16.111534118652344,&#34;m01&#34;:0.0,&#34;m02&#34;:65.9531250,&#34;m10&#34;:0.0,&#34;m11&#34;:23.0676269531250,&#34;m12&#34;:8.15332031250},&#34;opacity&#34;:1.0,&#34;blendMode&#34;:&#34;NORMAL&#34;,&#34;visible&#34;:true}"/>
<g clip-path="url(#paint4_diamond_1095_2072_clip_path)" data-figma-skip-parse="true"><g transform="matrix(0.00998903 0 0 0.0114838 96.3435 12.2299)"><rect x="0" y="0" width="1100.11" height="1087.08" fill="url(#paint4_diamond_1095_2072)" opacity="1" shape-rendering="crispEdges"/><rect x="0" y="0" width="1100.11" height="1087.08" transform="scale(1 -1)" fill="url(#paint4_diamond_1095_2072)" opacity="1" shape-rendering="crispEdges"/><rect x="0" y="0" width="1100.11" height="1087.08" transform="scale(-1 1)" fill="url(#paint4_diamond_1095_2072)" opacity="1" shape-rendering="crispEdges"/><rect x="0" y="0" width="1100.11" height="1087.08" transform="scale(-1)" fill="url(#paint4_diamond_1095_2072)" opacity="1" shape-rendering="crispEdges"/></g></g><path d="M97.0409 4.84519C93.488 4.84519 91.1657 7.5355 91.1657 12.2254C91.1657 16.9152 93.525 19.6056 97.0132 19.6056C99.2337 19.6056 100.955 18.5785 101.704 16.7789C101.963 16.1609 102.611 15.7791 103.295 15.7882H104.526C105.775 15.8064 106.617 17.0607 106.127 18.1786C104.776 21.2779 101.593 23.7137 96.9484 23.7137C90.8511 23.7137 86.3545 19.5147 86.3545 12.2254C86.3545 4.93608 90.9436 0.746094 96.9484 0.746094C101.334 0.746094 104.822 2.81836 106.219 6.49028C106.645 7.6173 105.821 8.83522 104.591 8.83522H103.342C102.639 8.83522 101.982 8.4353 101.741 7.78999C101.038 5.94494 99.2892 4.85428 97.0502 4.85428L97.0409 4.84519Z" data-figma-gradient-fill="{&#34;type&#34;:&#34;GRADIENT_DIAMOND&#34;,&#34;stops&#34;:[{&#34;color&#34;:{&#34;r&#34;:0.30588236451148987,&#34;g&#34;:0.16941176354885101,&#34;b&#34;:0.094117648899555206,&#34;a&#34;:1.0},&#34;position&#34;:0.0},{&#34;color&#34;:{&#34;r&#34;:0.23137255012989044,&#34;g&#34;:0.12941177189350128,&#34;b&#34;:0.070588238537311554,&#34;a&#34;:1.0},&#34;position&#34;:1.0}],&#34;stopsVar&#34;:[{&#34;color&#34;:{&#34;r&#34;:0.30588236451148987,&#34;g&#34;:0.16941176354885101,&#34;b&#34;:0.094117648899555206,&#34;a&#34;:1.0},&#34;position&#34;:0.0},{&#34;color&#34;:{&#34;r&#34;:0.23137255012989044,&#34;g&#34;:0.12941177189350128,&#34;b&#34;:0.070588238537311554,&#34;a&#34;:1.0},&#34;position&#34;:1.0}],&#34;transform&#34;:{&#34;m00&#34;:19.978063583374023,&#34;m01&#34;:0.0,&#34;m02&#34;:86.35449218750,&#34;m10&#34;:0.0,&#34;m11&#34;:22.96765136718750,&#34;m12&#34;:0.746093750},&#34;opacity&#34;:1.0,&#34;blendMode&#34;:&#34;NORMAL&#34;,&#34;visible&#34;:true}"/>
<g clip-path="url(#paint5_diamond_1095_2072_clip_path)" data-figma-skip-parse="true"><g transform="matrix(0.00837797 0 0 0.00865718 115.781 15.0195)"><rect x="0" y="0" width="1119.36" height="1115.51" fill="url(#paint5_diamond_1095_2072)" opacity="1" shape-rendering="crispEdges"/><rect x="0" y="0" width="1119.36" height="1115.51" transform="scale(1 -1)" fill="url(#paint5_diamond_1095_2072)" opacity="1" shape-rendering="crispEdges"/><rect x="0" y="0" width="1119.36" height="1115.51" transform="scale(-1 1)" fill="url(#paint5_diamond_1095_2072)" opacity="1" shape-rendering="crispEdges"/><rect x="0" y="0" width="1119.36" height="1115.51" transform="scale(-1)" fill="url(#paint5_diamond_1095_2072)" opacity="1" shape-rendering="crispEdges"/></g></g><path d="M107.403 15.0058C107.403 9.81609 110.605 6.3623 115.767 6.3623C120.93 6.3623 124.159 9.81609 124.159 15.0058C124.159 20.1956 120.921 23.6767 115.767 23.6767C110.614 23.6767 107.403 20.1865 107.403 15.0058ZM119.413 15.0058C119.413 12.0429 118.182 9.85244 115.795 9.85244C113.408 9.85244 112.122 12.0429 112.122 15.0058C112.122 17.9688 113.38 20.132 115.795 20.132C118.21 20.132 119.413 17.9416 119.413 15.0058Z" data-figma-gradient-fill="{&#34;type&#34;:&#34;GRADIENT_DIAMOND&#34;,&#34;stops&#34;:[{&#34;color&#34;:{&#34;r&#34;:0.30588236451148987,&#34;g&#34;:0.16941176354885101,&#34;b&#34;:0.094117648899555206,&#34;a&#34;:1.0},&#34;position&#34;:0.0},{&#34;color&#34;:{&#34;r&#34;:0.23137255012989044,&#34;g&#34;:0.12941177189350128,&#34;b&#34;:0.070588238537311554,&#34;a&#34;:1.0},&#34;position&#34;:1.0}],&#34;stopsVar&#34;:[{&#34;color&#34;:{&#34;r&#34;:0.30588236451148987,&#34;g&#34;:0.16941176354885101,&#34;b&#34;:0.094117648899555206,&#34;a&#34;:1.0},&#34;position&#34;:0.0},{&#34;color&#34;:{&#34;r&#34;:0.23137255012989044,&#34;g&#34;:0.12941177189350128,&#34;b&#34;:0.070588238537311554,&#34;a&#34;:1.0},&#34;position&#34;:1.0}],&#34;transform&#34;:{&#34;m00&#34;:16.755949020385742,&#34;m01&#34;:0.0,&#34;m02&#34;:107.40332031250,&#34;m10&#34;:0.0,&#34;m11&#34;:17.314355850219727,&#34;m12&#34;:6.36230468750},&#34;opacity&#34;:1.0,&#34;blendMode&#34;:&#34;NORMAL&#34;,&#34;visible&#34;:true}"/>
<g clip-path="url(#paint6_diamond_1095_2072_clip_path)" data-figma-skip-parse="true"><g transform="matrix(0.0062962 0 0 0.0117065 129.918 11.6977)"><rect x="0" y="0" width="1158.83" height="1085.42" fill="url(#paint6_diamond_1095_2072)" opacity="1" shape-rendering="crispEdges"/><rect x="0" y="0" width="1158.83" height="1085.42" transform="scale(1 -1)" fill="url(#paint6_diamond_1095_2072)" opacity="1" shape-rendering="crispEdges"/><rect x="0" y="0" width="1158.83" height="1085.42" transform="scale(-1 1)" fill="url(#paint6_diamond_1095_2072)" opacity="1" shape-rendering="crispEdges"/><rect x="0" y="0" width="1158.83" height="1085.42" transform="scale(-1)" fill="url(#paint6_diamond_1095_2072)" opacity="1" shape-rendering="crispEdges"/></g></g><path d="M136.214 10.0617H131.847C131.607 10.0617 131.403 10.2526 131.403 10.498V22.768C131.403 23.1134 131.116 23.4042 130.756 23.4042H127.406C127.045 23.4042 126.74 23.1134 126.74 22.7498V10.598C126.74 10.298 126.5 10.0617 126.194 10.0617H124.103C123.835 10.0617 123.622 9.85267 123.622 9.58909V8.31664C123.622 7.38049 124.39 6.62611 125.343 6.62611H126.74V5.36275C126.74 1.84535 128.905 -0.00878906 132.338 -0.00878906H132.791C134.068 -0.00878906 135.104 1.00917 135.104 2.26344V3.06326C135.104 3.5177 134.891 3.70857 134.642 3.69039C134.207 3.65404 133.874 3.63586 133.689 3.63586C132.18 3.63586 131.394 4.22664 131.394 5.60815V6.62611H136.205V10.0526L136.214 10.0617Z" data-figma-gradient-fill="{&#34;type&#34;:&#34;GRADIENT_DIAMOND&#34;,&#34;stops&#34;:[{&#34;color&#34;:{&#34;r&#34;:0.30588236451148987,&#34;g&#34;:0.16941176354885101,&#34;b&#34;:0.094117648899555206,&#34;a&#34;:1.0},&#34;position&#34;:0.0},{&#34;color&#34;:{&#34;r&#34;:0.23137255012989044,&#34;g&#34;:0.12941177189350128,&#34;b&#34;:0.070588238537311554,&#34;a&#34;:1.0},&#34;position&#34;:1.0}],&#34;stopsVar&#34;:[{&#34;color&#34;:{&#34;r&#34;:0.30588236451148987,&#34;g&#34;:0.16941176354885101,&#34;b&#34;:0.094117648899555206,&#34;a&#34;:1.0},&#34;position&#34;:0.0},{&#34;color&#34;:{&#34;r&#34;:0.23137255012989044,&#34;g&#34;:0.12941177189350128,&#34;b&#34;:0.070588238537311554,&#34;a&#34;:1.0},&#34;position&#34;:1.0}],&#34;transform&#34;:{&#34;m00&#34;:12.592406272888184,&#34;m01&#34;:0.0,&#34;m02&#34;:123.62207031250,&#34;m10&#34;:0.0,&#34;m11&#34;:23.413007736206055,&#34;m12&#34;:-0.00878906250},&#34;opacity&#34;:1.0,&#34;blendMode&#34;:&#34;NORMAL&#34;,&#34;visible&#34;:true}"/>
<g clip-path="url(#paint7_diamond_1095_2072_clip_path)" data-figma-skip-parse="true"><g transform="matrix(0.00538947 0 0 0.0116974 140.504 11.6974)"><rect x="0" y="0" width="1185.55" height="1085.49" fill="url(#paint7_diamond_1095_2072)" opacity="1" shape-rendering="crispEdges"/><rect x="0" y="0" width="1185.55" height="1085.49" transform="scale(1 -1)" fill="url(#paint7_diamond_1095_2072)" opacity="1" shape-rendering="crispEdges"/><rect x="0" y="0" width="1185.55" height="1085.49" transform="scale(-1 1)" fill="url(#paint7_diamond_1095_2072)" opacity="1" shape-rendering="crispEdges"/><rect x="0" y="0" width="1185.55" height="1085.49" transform="scale(-1)" fill="url(#paint7_diamond_1095_2072)" opacity="1" shape-rendering="crispEdges"/></g></g><path d="M145.412 10.0614H142.609C142.377 10.0614 142.183 10.2432 142.183 10.4795V22.7677C142.183 23.1131 141.896 23.3948 141.545 23.3948H138.177C137.825 23.3948 137.538 23.1131 137.538 22.7677V10.4795C137.538 10.2523 137.353 10.0614 137.113 10.0614H135.54C135.309 10.0614 135.114 9.87963 135.114 9.64332V7.05299C135.114 6.82576 135.299 6.6349 135.54 6.6349H137.538V5.37154C137.538 1.85414 139.703 0 143.136 0H143.164C144.672 0 145.893 1.20882 145.893 2.69031V3.1902C145.893 3.52649 145.68 3.71736 145.431 3.69918C144.996 3.66283 144.663 3.64465 144.478 3.64465C142.969 3.64465 142.183 4.23543 142.183 5.61694V6.6349H144.172C145.125 6.6349 145.893 7.38928 145.893 8.32543V9.59788C145.893 9.85237 145.68 10.0705 145.412 10.0705V10.0614Z" data-figma-gradient-fill="{&#34;type&#34;:&#34;GRADIENT_DIAMOND&#34;,&#34;stops&#34;:[{&#34;color&#34;:{&#34;r&#34;:0.30588236451148987,&#34;g&#34;:0.16941176354885101,&#34;b&#34;:0.094117648899555206,&#34;a&#34;:1.0},&#34;position&#34;:0.0},{&#34;color&#34;:{&#34;r&#34;:0.23137255012989044,&#34;g&#34;:0.12941177189350128,&#34;b&#34;:0.070588238537311554,&#34;a&#34;:1.0},&#34;position&#34;:1.0}],&#34;stopsVar&#34;:[{&#34;color&#34;:{&#34;r&#34;:0.30588236451148987,&#34;g&#34;:0.16941176354885101,&#34;b&#34;:0.094117648899555206,&#34;a&#34;:1.0},&#34;position&#34;:0.0},{&#34;color&#34;:{&#34;r&#34;:0.23137255012989044,&#34;g&#34;:0.12941177189350128,&#34;b&#34;:0.070588238537311554,&#34;a&#34;:1.0},&#34;position&#34;:1.0}],&#34;transform&#34;:{&#34;m00&#34;:10.778945922851562,&#34;m01&#34;:0.0,&#34;m02&#34;:135.11425781250,&#34;m10&#34;:0.0,&#34;m11&#34;:23.394828796386719,&#34;m12&#34;:0.0},&#34;opacity&#34;:1.0,&#34;blendMode&#34;:&#34;NORMAL&#34;,&#34;visible&#34;:true}"/>
<g clip-path="url(#paint8_diamond_1095_2072_clip_path)" data-figma-skip-parse="true"><g transform="matrix(0.00812354 0 0 0.00866627 153.128 15.092)"><rect x="0" y="0" width="1123.1" height="1115.39" fill="url(#paint8_diamond_1095_2072)" opacity="1" shape-rendering="crispEdges"/><rect x="0" y="0" width="1123.1" height="1115.39" transform="scale(1 -1)" fill="url(#paint8_diamond_1095_2072)" opacity="1" shape-rendering="crispEdges"/><rect x="0" y="0" width="1123.1" height="1115.39" transform="scale(-1 1)" fill="url(#paint8_diamond_1095_2072)" opacity="1" shape-rendering="crispEdges"/><rect x="0" y="0" width="1123.1" height="1115.39" transform="scale(-1)" fill="url(#paint8_diamond_1095_2072)" opacity="1" shape-rendering="crispEdges"/></g></g><path d="M145.005 15.0966C145.005 9.90683 148.243 6.42578 153.239 6.42578C157.736 6.42578 161.252 9.20698 161.252 14.9148C161.252 15.6328 160.66 16.2145 159.929 16.2145H151.13C150.214 16.2145 149.566 17.1052 149.881 17.9505C150.427 19.4502 151.741 20.3227 153.526 20.3227C154.812 20.3227 155.802 19.8683 156.376 19.1502C156.635 18.8321 157.014 18.6322 157.422 18.6322H159.189C160.216 18.6322 160.873 19.741 160.327 20.5954C159.078 22.5495 156.663 23.7583 153.424 23.7583C148.206 23.7583 145.005 20.4227 145.005 15.1148V15.0966ZM155.182 13.3333C156.172 13.3333 156.857 12.2699 156.348 11.4338C155.756 10.4522 154.674 9.8523 153.332 9.8523C151.99 9.8523 150.973 10.4249 150.306 11.3065C149.64 12.1881 150.334 13.3424 151.398 13.3424H155.173L155.182 13.3333Z" data-figma-gradient-fill="{&#34;type&#34;:&#34;GRADIENT_DIAMOND&#34;,&#34;stops&#34;:[{&#34;color&#34;:{&#34;r&#34;:0.30588236451148987,&#34;g&#34;:0.16941176354885101,&#34;b&#34;:0.094117648899555206,&#34;a&#34;:1.0},&#34;position&#34;:0.0},{&#34;color&#34;:{&#34;r&#34;:0.23137255012989044,&#34;g&#34;:0.12941177189350128,&#34;b&#34;:0.070588238537311554,&#34;a&#34;:1.0},&#34;position&#34;:1.0}],&#34;stopsVar&#34;:[{&#34;color&#34;:{&#34;r&#34;:0.30588236451148987,&#34;g&#34;:0.16941176354885101,&#34;b&#34;:0.094117648899555206,&#34;a&#34;:1.0},&#34;position&#34;:0.0},{&#34;color&#34;:{&#34;r&#34;:0.23137255012989044,&#34;g&#34;:0.12941177189350128,&#34;b&#34;:0.070588238537311554,&#34;a&#34;:1.0},&#34;position&#34;:1.0}],&#34;transform&#34;:{&#34;m00&#34;:16.247076034545898,&#34;m01&#34;:0.0,&#34;m02&#34;:145.00488281250,&#34;m10&#34;:0.0,&#34;m11&#34;:17.332532882690430,&#34;m12&#34;:6.425781250},&#34;opacity&#34;:1.0,&#34;blendMode&#34;:&#34;NORMAL&#34;,&#34;visible&#34;:true}"/>
<g clip-path="url(#paint9_diamond_1095_2072_clip_path)" data-figma-skip-parse="true"><g transform="matrix(0.00812353 0 0 0.00866627 167.21 15.092)"><rect x="0" y="0" width="1123.1" height="1115.39" fill="url(#paint9_diamond_1095_2072)" opacity="1" shape-rendering="crispEdges"/><rect x="0" y="0" width="1123.1" height="1115.39" transform="scale(1 -1)" fill="url(#paint9_diamond_1095_2072)" opacity="1" shape-rendering="crispEdges"/><rect x="0" y="0" width="1123.1" height="1115.39" transform="scale(-1 1)" fill="url(#paint9_diamond_1095_2072)" opacity="1" shape-rendering="crispEdges"/><rect x="0" y="0" width="1123.1" height="1115.39" transform="scale(-1)" fill="url(#paint9_diamond_1095_2072)" opacity="1" shape-rendering="crispEdges"/></g></g><path d="M159.087 15.0966C159.087 9.90683 162.325 6.42578 167.321 6.42578C171.818 6.42578 175.334 9.20698 175.334 14.9148C175.334 15.6328 174.742 16.2145 174.011 16.2145H165.212C164.296 16.2145 163.648 17.1052 163.963 17.9505C164.509 19.4502 165.823 20.3227 167.608 20.3227C168.894 20.3227 169.884 19.8683 170.458 19.1502C170.717 18.8321 171.096 18.6322 171.504 18.6322H173.271C174.298 18.6322 174.955 19.741 174.409 20.5954C173.16 22.5495 170.745 23.7583 167.507 23.7583C162.288 23.7583 159.087 20.4227 159.087 15.1148V15.0966ZM169.255 13.3333C170.245 13.3333 170.93 12.2699 170.421 11.4338C169.829 10.4522 168.746 9.8523 167.405 9.8523C166.063 9.8523 165.045 10.4249 164.379 11.3065C163.713 12.1881 164.407 13.3424 165.471 13.3424H169.246L169.255 13.3333Z" data-figma-gradient-fill="{&#34;type&#34;:&#34;GRADIENT_DIAMOND&#34;,&#34;stops&#34;:[{&#34;color&#34;:{&#34;r&#34;:0.30588236451148987,&#34;g&#34;:0.16941176354885101,&#34;b&#34;:0.094117648899555206,&#34;a&#34;:1.0},&#34;position&#34;:0.0},{&#34;color&#34;:{&#34;r&#34;:0.23137255012989044,&#34;g&#34;:0.12941177189350128,&#34;b&#34;:0.070588238537311554,&#34;a&#34;:1.0},&#34;position&#34;:1.0}],&#34;stopsVar&#34;:[{&#34;color&#34;:{&#34;r&#34;:0.30588236451148987,&#34;g&#34;:0.16941176354885101,&#34;b&#34;:0.094117648899555206,&#34;a&#34;:1.0},&#34;position&#34;:0.0},{&#34;color&#34;:{&#34;r&#34;:0.23137255012989044,&#34;g&#34;:0.12941177189350128,&#34;b&#34;:0.070588238537311554,&#34;a&#34;:1.0},&#34;position&#34;:1.0}],&#34;transform&#34;:{&#34;m00&#34;:16.247068405151367,&#34;m01&#34;:0.0,&#34;m02&#34;:159.08691406250,&#34;m10&#34;:0.0,&#34;m11&#34;:17.332532882690430,&#34;m12&#34;:6.425781250},&#34;opacity&#34;:1.0,&#34;blendMode&#34;:&#34;NORMAL&#34;,&#34;visible&#34;:true}"/>
<g clip-path="url(#paint10_diamond_1095_2072_clip_path)" data-figma-skip-parse="true"><g transform="matrix(0.00262345 0 0 0.0025767 179.88 20.8189)"><rect x="0" y="0" width="1381.18" height="1388.09" fill="url(#paint10_diamond_1095_2072)" opacity="1" shape-rendering="crispEdges"/><rect x="0" y="0" width="1381.18" height="1388.09" transform="scale(1 -1)" fill="url(#paint10_diamond_1095_2072)" opacity="1" shape-rendering="crispEdges"/><rect x="0" y="0" width="1381.18" height="1388.09" transform="scale(-1 1)" fill="url(#paint10_diamond_1095_2072)" opacity="1" shape-rendering="crispEdges"/><rect x="0" y="0" width="1381.18" height="1388.09" transform="scale(-1)" fill="url(#paint10_diamond_1095_2072)" opacity="1" shape-rendering="crispEdges"/></g></g><path d="M177.258 20.8053C177.23 19.3874 178.423 18.2422 179.895 18.2422C181.282 18.2422 182.504 19.3874 182.504 20.8053C182.504 22.2231 181.282 23.3956 179.895 23.3956C178.414 23.3956 177.221 22.2231 177.258 20.8053Z" data-figma-gradient-fill="{&#34;type&#34;:&#34;GRADIENT_DIAMOND&#34;,&#34;stops&#34;:[{&#34;color&#34;:{&#34;r&#34;:0.30588236451148987,&#34;g&#34;:0.16941176354885101,&#34;b&#34;:0.094117648899555206,&#34;a&#34;:1.0},&#34;position&#34;:0.0},{&#34;color&#34;:{&#34;r&#34;:0.23137255012989044,&#34;g&#34;:0.12941177189350128,&#34;b&#34;:0.070588238537311554,&#34;a&#34;:1.0},&#34;position&#34;:1.0}],&#34;stopsVar&#34;:[{&#34;color&#34;:{&#34;r&#34;:0.30588236451148987,&#34;g&#34;:0.16941176354885101,&#34;b&#34;:0.094117648899555206,&#34;a&#34;:1.0},&#34;position&#34;:0.0},{&#34;color&#34;:{&#34;r&#34;:0.23137255012989044,&#34;g&#34;:0.12941177189350128,&#34;b&#34;:0.070588238537311554,&#34;a&#34;:1.0},&#34;position&#34;:1.0}],&#34;transform&#34;:{&#34;m00&#34;:5.2469010353088379,&#34;m01&#34;:0.0,&#34;m02&#34;:177.25683593750,&#34;m10&#34;:0.0,&#34;m11&#34;:5.1534066200256348,&#34;m12&#34;:18.24218750},&#34;opacity&#34;:1.0,&#34;blendMode&#34;:&#34;NORMAL&#34;,&#34;visible&#34;:true}"/>
<g clip-path="url(#paint11_diamond_1095_2072_clip_path)" data-figma-skip-parse="true"><g transform="matrix(0.010578 0 0 0.0111793 197.073 12.234)"><rect x="0" y="0" width="1094.54" height="1089.45" fill="url(#paint11_diamond_1095_2072)" opacity="1" shape-rendering="crispEdges"/><rect x="0" y="0" width="1094.54" height="1089.45" transform="scale(1 -1)" fill="url(#paint11_diamond_1095_2072)" opacity="1" shape-rendering="crispEdges"/><rect x="0" y="0" width="1094.54" height="1089.45" transform="scale(-1 1)" fill="url(#paint11_diamond_1095_2072)" opacity="1" shape-rendering="crispEdges"/><rect x="0" y="0" width="1094.54" height="1089.45" transform="scale(-1)" fill="url(#paint11_diamond_1095_2072)" opacity="1" shape-rendering="crispEdges"/></g></g><path d="M186.547 22.3318L193.866 1.59093C193.977 1.26373 194.291 1.05469 194.643 1.05469H199.537C199.889 1.05469 200.194 1.27282 200.314 1.60002L207.605 22.3409C207.79 22.859 207.393 23.4043 206.828 23.4043H203.516C203.164 23.4043 202.85 23.1771 202.739 22.8499L201.406 18.8053C201.295 18.469 200.981 18.2509 200.629 18.2509H193.579C193.227 18.2509 192.913 18.4781 192.802 18.8053L191.442 22.859C191.33 23.1862 191.016 23.4134 190.664 23.4134H187.315C186.751 23.4134 186.362 22.868 186.538 22.35L186.547 22.3318ZM198.899 14.6335C199.454 14.6335 199.852 14.0973 199.676 13.5792L197.169 6.08085H197.011L194.532 13.5792C194.356 14.0973 194.754 14.6335 195.309 14.6335H198.899Z" data-figma-gradient-fill="{&#34;type&#34;:&#34;GRADIENT_DIAMOND&#34;,&#34;stops&#34;:[{&#34;color&#34;:{&#34;r&#34;:0.30588236451148987,&#34;g&#34;:0.16941176354885101,&#34;b&#34;:0.094117648899555206,&#34;a&#34;:1.0},&#34;position&#34;:0.0},{&#34;color&#34;:{&#34;r&#34;:0.23137255012989044,&#34;g&#34;:0.12941177189350128,&#34;b&#34;:0.070588238537311554,&#34;a&#34;:1.0},&#34;position&#34;:1.0}],&#34;stopsVar&#34;:[{&#34;color&#34;:{&#34;r&#34;:0.30588236451148987,&#34;g&#34;:0.16941176354885101,&#34;b&#34;:0.094117648899555206,&#34;a&#34;:1.0},&#34;position&#34;:0.0},{&#34;color&#34;:{&#34;r&#34;:0.23137255012989044,&#34;g&#34;:0.12941177189350128,&#34;b&#34;:0.070588238537311554,&#34;a&#34;:1.0},&#34;position&#34;:1.0}],&#34;transform&#34;:{&#34;m00&#34;:21.156070709228516,&#34;m01&#34;:0.0,&#34;m02&#34;:186.49511718750,&#34;m10&#34;:0.0,&#34;m11&#34;:22.358694076538086,&#34;m12&#34;:1.05468750},&#34;opacity&#34;:1.0,&#34;blendMode&#34;:&#34;NORMAL&#34;,&#34;visible&#34;:true}"/>
<g clip-path="url(#paint12_diamond_1095_2072_clip_path)" data-figma-skip-parse="true"><g transform="matrix(0.00253051 0 0 0.0023313 212.847 3.14087)"><rect x="0" y="0" width="1395.18" height="1428.94" fill="url(#paint12_diamond_1095_2072)" opacity="1" shape-rendering="crispEdges"/><rect x="0" y="0" width="1395.18" height="1428.94" transform="scale(1 -1)" fill="url(#paint12_diamond_1095_2072)" opacity="1" shape-rendering="crispEdges"/><rect x="0" y="0" width="1395.18" height="1428.94" transform="scale(-1 1)" fill="url(#paint12_diamond_1095_2072)" opacity="1" shape-rendering="crispEdges"/><rect x="0" y="0" width="1395.18" height="1428.94" transform="scale(-1)" fill="url(#paint12_diamond_1095_2072)" opacity="1" shape-rendering="crispEdges"/></g></g><path d="M210.316 3.15451C210.316 1.85479 211.445 0.80957 212.861 0.80957C214.276 0.80957 215.377 1.86388 215.377 3.15451C215.377 4.44513 214.249 5.47218 212.861 5.47218C211.473 5.47218 210.316 4.42695 210.316 3.15451Z" data-figma-gradient-fill="{&#34;type&#34;:&#34;GRADIENT_DIAMOND&#34;,&#34;stops&#34;:[{&#34;color&#34;:{&#34;r&#34;:0.30588236451148987,&#34;g&#34;:0.16941176354885101,&#34;b&#34;:0.094117648899555206,&#34;a&#34;:1.0},&#34;position&#34;:0.0},{&#34;color&#34;:{&#34;r&#34;:0.23137255012989044,&#34;g&#34;:0.12941177189350128,&#34;b&#34;:0.070588238537311554,&#34;a&#34;:1.0},&#34;position&#34;:1.0}],&#34;stopsVar&#34;:[{&#34;color&#34;:{&#34;r&#34;:0.30588236451148987,&#34;g&#34;:0.16941176354885101,&#34;b&#34;:0.094117648899555206,&#34;a&#34;:1.0},&#34;position&#34;:0.0},{&#34;color&#34;:{&#34;r&#34;:0.23137255012989044,&#34;g&#34;:0.12941177189350128,&#34;b&#34;:0.070588238537311554,&#34;a&#34;:1.0},&#34;position&#34;:1.0}],&#34;transform&#34;:{&#34;m00&#34;:5.0610194206237793,&#34;m01&#34;:0.0,&#34;m02&#34;:210.316406250,&#34;m10&#34;:0.0,&#34;m11&#34;:4.6626062393188477,&#34;m12&#34;:0.80957031250},&#34;opacity&#34;:1.0,&#34;blendMode&#34;:&#34;NORMAL&#34;,&#34;visible&#34;:true}"/>
<g clip-path="url(#paint13_diamond_1095_2072_clip_path)" data-figma-skip-parse="true"><g transform="matrix(0.00232696 0 0 0.00837997 212.866 15.0157)"><rect x="0" y="0" width="1429.75" height="1119.33" fill="url(#paint13_diamond_1095_2072)" opacity="1" shape-rendering="crispEdges"/><rect x="0" y="0" width="1429.75" height="1119.33" transform="scale(1 -1)" fill="url(#paint13_diamond_1095_2072)" opacity="1" shape-rendering="crispEdges"/><rect x="0" y="0" width="1429.75" height="1119.33" transform="scale(-1 1)" fill="url(#paint13_diamond_1095_2072)" opacity="1" shape-rendering="crispEdges"/><rect x="0" y="0" width="1429.75" height="1119.33" transform="scale(-1)" fill="url(#paint13_diamond_1095_2072)" opacity="1" shape-rendering="crispEdges"/></g></g><path d="M214.175 6.63574H211.557C210.995 6.63574 210.539 7.08336 210.539 7.63552V22.3959C210.539 22.9481 210.995 23.3957 211.557 23.3957H214.175C214.737 23.3957 215.193 22.9481 215.193 22.3959V7.63552C215.193 7.08336 214.737 6.63574 214.175 6.63574Z" data-figma-gradient-fill="{&#34;type&#34;:&#34;GRADIENT_DIAMOND&#34;,&#34;stops&#34;:[{&#34;color&#34;:{&#34;r&#34;:0.30588236451148987,&#34;g&#34;:0.16941176354885101,&#34;b&#34;:0.094117648899555206,&#34;a&#34;:1.0},&#34;position&#34;:0.0},{&#34;color&#34;:{&#34;r&#34;:0.23137255012989044,&#34;g&#34;:0.12941177189350128,&#34;b&#34;:0.070588238537311554,&#34;a&#34;:1.0},&#34;position&#34;:1.0}],&#34;stopsVar&#34;:[{&#34;color&#34;:{&#34;r&#34;:0.30588236451148987,&#34;g&#34;:0.16941176354885101,&#34;b&#34;:0.094117648899555206,&#34;a&#34;:1.0},&#34;position&#34;:0.0},{&#34;color&#34;:{&#34;r&#34;:0.23137255012989044,&#34;g&#34;:0.12941177189350128,&#34;b&#34;:0.070588238537311554,&#34;a&#34;:1.0},&#34;position&#34;:1.0}],&#34;transform&#34;:{&#34;m00&#34;:4.6539149284362793,&#34;m01&#34;:0.0,&#34;m02&#34;:210.53906250,&#34;m10&#34;:0.0,&#34;m11&#34;:16.759931564331055,&#34;m12&#34;:6.63574218750},&#34;opacity&#34;:1.0,&#34;blendMode&#34;:&#34;NORMAL&#34;,&#34;visible&#34;:true}"/>
</g>
<defs>
<clipPath id="paint2_diamond_1095_2072_clip_path"><path d="M44.9037 1.0459C45.4681 1.0459 45.9862 1.38219 46.1991 1.90025L52.1575 16.2062H52.4074L58.3659 1.90025C58.5787 1.38219 59.0875 1.0459 59.6612 1.0459H63.1678C63.9357 1.0459 64.5649 1.66394 64.5649 2.41832V22.5866C64.5649 23.0319 64.1948 23.3955 63.7414 23.3955H60.8085C60.3551 23.3955 59.985 23.0319 59.985 22.5866V8.76238H59.8L54.0728 22.7956C53.9432 23.1047 53.6472 23.3046 53.3048 23.3046H51.2786C50.9362 23.3046 50.6402 23.1047 50.5106 22.7956L44.7834 8.70784H44.5984V22.5866C44.5984 23.0319 44.2283 23.3955 43.7749 23.3955H40.8235C40.3701 23.3955 40 23.0319 40 22.5866V2.41832C40 1.66394 40.6292 1.0459 41.3971 1.0459H44.9037Z"/></clipPath><clipPath id="paint3_diamond_1095_2072_clip_path"><path d="M67.1467 31.121V27.5672C67.7481 27.5945 68.4327 27.6308 69.0341 27.6308C69.9409 27.6308 70.6996 27.5399 71.2639 26.0857L71.5508 25.3768L66.0271 9.86203C65.7311 9.02585 66.3602 8.15332 67.2577 8.15332H69.3025C69.8854 8.15332 70.4035 8.53505 70.5608 9.08948L73.8731 20.5051H74.0581L77.3982 9.08948C77.5555 8.53505 78.0737 8.16241 78.6565 8.16241H80.7568C81.6543 8.16241 82.2927 9.03494 81.9874 9.87112L75.9364 26.7765C74.9649 29.4668 73.1052 31.2209 69.4968 31.2209C68.59 31.2209 67.7388 31.1937 67.1374 31.1301L67.1467 31.121Z"/></clipPath><clipPath id="paint4_diamond_1095_2072_clip_path"><path d="M97.0409 4.84519C93.488 4.84519 91.1657 7.5355 91.1657 12.2254C91.1657 16.9152 93.525 19.6056 97.0132 19.6056C99.2337 19.6056 100.955 18.5785 101.704 16.7789C101.963 16.1609 102.611 15.7791 103.295 15.7882H104.526C105.775 15.8064 106.617 17.0607 106.127 18.1786C104.776 21.2779 101.593 23.7137 96.9484 23.7137C90.8511 23.7137 86.3545 19.5147 86.3545 12.2254C86.3545 4.93608 90.9436 0.746094 96.9484 0.746094C101.334 0.746094 104.822 2.81836 106.219 6.49028C106.645 7.6173 105.821 8.83522 104.591 8.83522H103.342C102.639 8.83522 101.982 8.4353 101.741 7.78999C101.038 5.94494 99.2892 4.85428 97.0502 4.85428L97.0409 4.84519Z"/></clipPath><clipPath id="paint5_diamond_1095_2072_clip_path"><path d="M107.403 15.0058C107.403 9.81609 110.605 6.3623 115.767 6.3623C120.93 6.3623 124.159 9.81609 124.159 15.0058C124.159 20.1956 120.921 23.6767 115.767 23.6767C110.614 23.6767 107.403 20.1865 107.403 15.0058ZM119.413 15.0058C119.413 12.0429 118.182 9.85244 115.795 9.85244C113.408 9.85244 112.122 12.0429 112.122 15.0058C112.122 17.9688 113.38 20.132 115.795 20.132C118.21 20.132 119.413 17.9416 119.413 15.0058Z"/></clipPath><clipPath id="paint6_diamond_1095_2072_clip_path"><path d="M136.214 10.0617H131.847C131.607 10.0617 131.403 10.2526 131.403 10.498V22.768C131.403 23.1134 131.116 23.4042 130.756 23.4042H127.406C127.045 23.4042 126.74 23.1134 126.74 22.7498V10.598C126.74 10.298 126.5 10.0617 126.194 10.0617H124.103C123.835 10.0617 123.622 9.85267 123.622 9.58909V8.31664C123.622 7.38049 124.39 6.62611 125.343 6.62611H126.74V5.36275C126.74 1.84535 128.905 -0.00878906 132.338 -0.00878906H132.791C134.068 -0.00878906 135.104 1.00917 135.104 2.26344V3.06326C135.104 3.5177 134.891 3.70857 134.642 3.69039C134.207 3.65404 133.874 3.63586 133.689 3.63586C132.18 3.63586 131.394 4.22664 131.394 5.60815V6.62611H136.205V10.0526L136.214 10.0617Z"/></clipPath><clipPath id="paint7_diamond_1095_2072_clip_path"><path d="M145.412 10.0614H142.609C142.377 10.0614 142.183 10.2432 142.183 10.4795V22.7677C142.183 23.1131 141.896 23.3948 141.545 23.3948H138.177C137.825 23.3948 137.538 23.1131 137.538 22.7677V10.4795C137.538 10.2523 137.353 10.0614 137.113 10.0614H135.54C135.309 10.0614 135.114 9.87963 135.114 9.64332V7.05299C135.114 6.82576 135.299 6.6349 135.54 6.6349H137.538V5.37154C137.538 1.85414 139.703 0 143.136 0H143.164C144.672 0 145.893 1.20882 145.893 2.69031V3.1902C145.893 3.52649 145.68 3.71736 145.431 3.69918C144.996 3.66283 144.663 3.64465 144.478 3.64465C142.969 3.64465 142.183 4.23543 142.183 5.61694V6.6349H144.172C145.125 6.6349 145.893 7.38928 145.893 8.32543V9.59788C145.893 9.85237 145.68 10.0705 145.412 10.0705V10.0614Z"/></clipPath><clipPath id="paint8_diamond_1095_2072_clip_path"><path d="M145.005 15.0966C145.005 9.90683 148.243 6.42578 153.239 6.42578C157.736 6.42578 161.252 9.20698 161.252 14.9148C161.252 15.6328 160.66 16.2145 159.929 16.2145H151.13C150.214 16.2145 149.566 17.1052 149.881 17.9505C150.427 19.4502 151.741 20.3227 153.526 20.3227C154.812 20.3227 155.802 19.8683 156.376 19.1502C156.635 18.8321 157.014 18.6322 157.422 18.6322H159.189C160.216 18.6322 160.873 19.741 160.327 20.5954C159.078 22.5495 156.663 23.7583 153.424 23.7583C148.206 23.7583 145.005 20.4227 145.005 15.1148V15.0966ZM155.182 13.3333C156.172 13.3333 156.857 12.2699 156.348 11.4338C155.756 10.4522 154.674 9.8523 153.332 9.8523C151.99 9.8523 150.973 10.4249 150.306 11.3065C149.64 12.1881 150.334 13.3424 151.398 13.3424H155.173L155.182 13.3333Z"/></clipPath><clipPath id="paint9_diamond_1095_2072_clip_path"><path d="M159.087 15.0966C159.087 9.90683 162.325 6.42578 167.321 6.42578C171.818 6.42578 175.334 9.20698 175.334 14.9148C175.334 15.6328 174.742 16.2145 174.011 16.2145H165.212C164.296 16.2145 163.648 17.1052 163.963 17.9505C164.509 19.4502 165.823 20.3227 167.608 20.3227C168.894 20.3227 169.884 19.8683 170.458 19.1502C170.717 18.8321 171.096 18.6322 171.504 18.6322H173.271C174.298 18.6322 174.955 19.741 174.409 20.5954C173.16 22.5495 170.745 23.7583 167.507 23.7583C162.288 23.7583 159.087 20.4227 159.087 15.1148V15.0966ZM169.255 13.3333C170.245 13.3333 170.93 12.2699 170.421 11.4338C169.829 10.4522 168.746 9.8523 167.405 9.8523C166.063 9.8523 165.045 10.4249 164.379 11.3065C163.713 12.1881 164.407 13.3424 165.471 13.3424H169.246L169.255 13.3333Z"/></clipPath><clipPath id="paint10_diamond_1095_2072_clip_path"><path d="M177.258 20.8053C177.23 19.3874 178.423 18.2422 179.895 18.2422C181.282 18.2422 182.504 19.3874 182.504 20.8053C182.504 22.2231 181.282 23.3956 179.895 23.3956C178.414 23.3956 177.221 22.2231 177.258 20.8053Z"/></clipPath><clipPath id="paint11_diamond_1095_2072_clip_path"><path d="M186.547 22.3318L193.866 1.59093C193.977 1.26373 194.291 1.05469 194.643 1.05469H199.537C199.889 1.05469 200.194 1.27282 200.314 1.60002L207.605 22.3409C207.79 22.859 207.393 23.4043 206.828 23.4043H203.516C203.164 23.4043 202.85 23.1771 202.739 22.8499L201.406 18.8053C201.295 18.469 200.981 18.2509 200.629 18.2509H193.579C193.227 18.2509 192.913 18.4781 192.802 18.8053L191.442 22.859C191.33 23.1862 191.016 23.4134 190.664 23.4134H187.315C186.751 23.4134 186.362 22.868 186.538 22.35L186.547 22.3318ZM198.899 14.6335C199.454 14.6335 199.852 14.0973 199.676 13.5792L197.169 6.08085H197.011L194.532 13.5792C194.356 14.0973 194.754 14.6335 195.309 14.6335H198.899Z"/></clipPath><clipPath id="paint12_diamond_1095_2072_clip_path"><path d="M210.316 3.15451C210.316 1.85479 211.445 0.80957 212.861 0.80957C214.276 0.80957 215.377 1.86388 215.377 3.15451C215.377 4.44513 214.249 5.47218 212.861 5.47218C211.473 5.47218 210.316 4.42695 210.316 3.15451Z"/></clipPath><clipPath id="paint13_diamond_1095_2072_clip_path"><path d="M214.175 6.63574H211.557C210.995 6.63574 210.539 7.08336 210.539 7.63552V22.3959C210.539 22.9481 210.995 23.3957 211.557 23.3957H214.175C214.737 23.3957 215.193 22.9481 215.193 22.3959V7.63552C215.193 7.08336 214.737 6.63574 214.175 6.63574Z"/></clipPath><linearGradient id="paint0_linear_1095_2072" x1="12.3208" y1="-3.64083" x2="29.3313" y2="21.5303" gradientUnits="userSpaceOnUse">
<stop stop-color="#B96738"/>
<stop offset="0.169772" stop-color="#472816"/>
<stop offset="0.641263" stop-color="#412414"/>
<stop offset="1" stop-color="#3B2112"/>
</linearGradient>
<linearGradient id="paint1_linear_1095_2072" x1="1.52694" y1="-7.47468" x2="18.6082" y2="17.8557" gradientUnits="userSpaceOnUse">
<stop stop-color="#B96738"/>
<stop offset="0.169772" stop-color="#472816"/>
<stop offset="0.641263" stop-color="#412414"/>
<stop offset="1" stop-color="#3B2112"/>
</linearGradient>
<linearGradient id="paint2_diamond_1095_2072" x1="0" y1="0" x2="500" y2="500" gradientUnits="userSpaceOnUse">
<stop stop-color="#4E2B18"/>
<stop offset="1" stop-color="#3B2112"/>
</linearGradient>
<linearGradient id="paint3_diamond_1095_2072" x1="0" y1="0" x2="500" y2="500" gradientUnits="userSpaceOnUse">
<stop stop-color="#4E2B18"/>
<stop offset="1" stop-color="#3B2112"/>
</linearGradient>
<linearGradient id="paint4_diamond_1095_2072" x1="0" y1="0" x2="500" y2="500" gradientUnits="userSpaceOnUse">
<stop stop-color="#4E2B18"/>
<stop offset="1" stop-color="#3B2112"/>
</linearGradient>
<linearGradient id="paint5_diamond_1095_2072" x1="0" y1="0" x2="500" y2="500" gradientUnits="userSpaceOnUse">
<stop stop-color="#4E2B18"/>
<stop offset="1" stop-color="#3B2112"/>
</linearGradient>
<linearGradient id="paint6_diamond_1095_2072" x1="0" y1="0" x2="500" y2="500" gradientUnits="userSpaceOnUse">
<stop stop-color="#4E2B18"/>
<stop offset="1" stop-color="#3B2112"/>
</linearGradient>
<linearGradient id="paint7_diamond_1095_2072" x1="0" y1="0" x2="500" y2="500" gradientUnits="userSpaceOnUse">
<stop stop-color="#4E2B18"/>
<stop offset="1" stop-color="#3B2112"/>
</linearGradient>
<linearGradient id="paint8_diamond_1095_2072" x1="0" y1="0" x2="500" y2="500" gradientUnits="userSpaceOnUse">
<stop stop-color="#4E2B18"/>
<stop offset="1" stop-color="#3B2112"/>
</linearGradient>
<linearGradient id="paint9_diamond_1095_2072" x1="0" y1="0" x2="500" y2="500" gradientUnits="userSpaceOnUse">
<stop stop-color="#4E2B18"/>
<stop offset="1" stop-color="#3B2112"/>
</linearGradient>
<linearGradient id="paint10_diamond_1095_2072" x1="0" y1="0" x2="500" y2="500" gradientUnits="userSpaceOnUse">
<stop stop-color="#4E2B18"/>
<stop offset="1" stop-color="#3B2112"/>
</linearGradient>
<linearGradient id="paint11_diamond_1095_2072" x1="0" y1="0" x2="500" y2="500" gradientUnits="userSpaceOnUse">
<stop stop-color="#4E2B18"/>
<stop offset="1" stop-color="#3B2112"/>
</linearGradient>
<linearGradient id="paint12_diamond_1095_2072" x1="0" y1="0" x2="500" y2="500" gradientUnits="userSpaceOnUse">
<stop stop-color="#4E2B18"/>
<stop offset="1" stop-color="#3B2112"/>
</linearGradient>
<linearGradient id="paint13_diamond_1095_2072" x1="0" y1="0" x2="500" y2="500" gradientUnits="userSpaceOnUse">
<stop stop-color="#4E2B18"/>
<stop offset="1" stop-color="#3B2112"/>
</linearGradient>
<clipPath id="clip0_1095_2072">
<rect width="175.378" height="31.2113" fill="white" transform="translate(40)"/>
</clipPath>
</defs>
</svg>
